<svg width="20" height="10" viewBox="0 0 20 10" fill="none" xmlns="http://www.w3.org/2000/svg">
<path fill-rule="evenodd" clip-rule="evenodd" d="M5.28032 0.720316C5.42077 0.860942 5.49966 1.05157 5.49966 1.25032C5.49966 1.44907 5.42077 1.63969 5.28032 1.78032L2.81032 4.25032H19.0003C19.1992 4.25032 19.39 4.32933 19.5306 4.46999C19.6713 4.61064 19.7503 4.8014 19.7503 5.00032C19.7503 5.19923 19.6713 5.38999 19.5306 5.53065C19.39 5.6713 19.1992 5.75032 19.0003 5.75032H2.81032L5.28032 8.22032C5.354 8.28898 5.41311 8.37178 5.4541 8.46378C5.49509 8.55578 5.51713 8.65509 5.51891 8.75579C5.52068 8.8565 5.50216 8.95653 5.46444 9.04991C5.42672 9.1433 5.37057 9.22814 5.29936 9.29935C5.22814 9.37057 5.1433 9.42672 5.04991 9.46444C4.95653 9.50216 4.8565 9.52068 4.75579 9.51891C4.65509 9.51713 4.55578 9.49509 4.46378 9.4541C4.37178 9.41311 4.28898 9.354 4.22032 9.28032L0.470317 5.53032C0.329866 5.38969 0.250977 5.19907 0.250977 5.00032C0.250977 4.80157 0.329866 4.61094 0.470317 4.47032L4.22032 0.720316C4.36094 0.579866 4.55157 0.500977 4.75032 0.500977C4.94907 0.500977 5.13969 0.579866 5.28032 0.720316Z" fill="#2F2F2F"/>
</svg>
