<svg width="18" height="10" viewBox="0 0 18 10" fill="none" xmlns="http://www.w3.org/2000/svg">
<path fill-rule="evenodd" clip-rule="evenodd" d="M9.52985 9.28015C9.38922 9.4206 9.1986 9.49949 8.99985 9.49949C8.8011 9.49949 8.61047 9.4206 8.46985 9.28015L0.969847 1.78015C0.837366 1.63798 0.765243 1.44993 0.768672 1.25563C0.7721 1.06133 0.850812 0.875945 0.988225 0.738532C1.12564 0.601118 1.31102 0.522407 1.50532 0.518978C1.69963 0.51555 1.88767 0.587673 2.02985 0.720153L8.99985 7.69015L15.9698 0.720153C16.0385 0.646466 16.1213 0.587364 16.2133 0.546372C16.3053 0.50538 16.4046 0.483339 16.5053 0.481562C16.606 0.479785 16.7061 0.49831 16.7994 0.536031C16.8928 0.573752 16.9777 0.629896 17.0489 0.701115C17.1201 0.772334 17.1762 0.857168 17.214 0.950556C17.2517 1.04394 17.2702 1.14397 17.2684 1.24468C17.2667 1.34538 17.2446 1.44469 17.2036 1.53669C17.1626 1.62869 17.1035 1.71149 17.0298 1.78015L9.52985 9.28015Z" fill="#2F2F2F"/>
</svg>
