<svg width="20" height="20" viewBox="0 0 20 20" fill="none" xmlns="http://www.w3.org/2000/svg">
<path d="M7.59372 1.94C7.68372 1.398 8.15372 1 8.70372 1H11.2967C11.8467 1 12.3167 1.398 12.4067 1.94L12.6197 3.221C12.6827 3.595 12.9327 3.907 13.2647 4.091C13.3387 4.131 13.4117 4.174 13.4847 4.218C13.8087 4.414 14.2047 4.475 14.5597 4.342L15.7767 3.886C16.0261 3.79221 16.3007 3.78998 16.5516 3.87971C16.8025 3.96945 17.0134 4.14531 17.1467 4.376L18.4427 6.623C18.5758 6.8537 18.6227 7.12413 18.5751 7.38617C18.5275 7.6482 18.3884 7.88485 18.1827 8.054L17.1797 8.881C16.8867 9.121 16.7417 9.494 16.7487 9.873C16.7503 9.95799 16.7503 10.043 16.7487 10.128C16.7417 10.506 16.8867 10.878 17.1787 11.118L18.1837 11.946C18.6077 12.296 18.7177 12.9 18.4437 13.376L17.1457 15.623C17.0126 15.8536 16.8019 16.0296 16.5512 16.1195C16.3005 16.2094 16.0261 16.2074 15.7767 16.114L14.5597 15.658C14.2047 15.525 13.8097 15.586 13.4837 15.782C13.4112 15.8261 13.3379 15.8688 13.2637 15.91C12.9327 16.093 12.6827 16.405 12.6197 16.779L12.4067 18.059C12.3167 18.602 11.8467 19 11.2967 19H8.70272C8.15272 19 7.68272 18.602 7.59272 18.06L7.37972 16.779C7.31772 16.405 7.06772 16.093 6.73572 15.909C6.66157 15.8681 6.58822 15.8258 6.51572 15.782C6.19072 15.586 5.79572 15.525 5.43972 15.658L4.22272 16.114C3.97345 16.2075 3.69908 16.2096 3.44842 16.1199C3.19775 16.0302 2.98703 15.8545 2.85372 15.624L1.55672 13.377C1.42366 13.1463 1.37676 12.8759 1.42437 12.6138C1.47198 12.3518 1.61101 12.1152 1.81672 11.946L2.82072 11.119C3.11272 10.879 3.25772 10.506 3.25072 10.127C3.24915 10.042 3.24915 9.95699 3.25072 9.872C3.25772 9.494 3.11272 9.122 2.82072 8.882L1.81672 8.054C1.61126 7.88489 1.47239 7.64843 1.42479 7.38662C1.37719 7.12481 1.42393 6.8546 1.55672 6.624L2.85372 4.377C2.9869 4.14614 3.19773 3.97006 3.44863 3.88014C3.69953 3.79021 3.97421 3.79229 4.22372 3.886L5.43972 4.342C5.79572 4.475 6.19072 4.414 6.51572 4.218C6.58772 4.174 6.66172 4.131 6.73572 4.09C7.06772 3.907 7.31772 3.595 7.37972 3.221L7.59372 1.94Z" stroke="#2F2F2F" stroke-linecap="round" stroke-linejoin="round"/>
<path d="M13 10C13 10.7956 12.6839 11.5587 12.1213 12.1213C11.5587 12.6839 10.7956 13 10 13C9.20435 13 8.44129 12.6839 7.87868 12.1213C7.31607 11.5587 7 10.7956 7 10C7 9.20435 7.31607 8.44129 7.87868 7.87868C8.44129 7.31607 9.20435 7 10 7C10.7956 7 11.5587 7.31607 12.1213 7.87868C12.6839 8.44129 13 9.20435 13 10Z" stroke="#2F2F2F" stroke-linecap="round" stroke-linejoin="round"/>
</svg>
