<svg width="22" height="16" viewBox="0 0 22 16" fill="none" xmlns="http://www.w3.org/2000/svg">
<path d="M1.03613 8.322C0.967122 8.11459 0.967122 7.89041 1.03613 7.683C2.42313 3.51 6.36013 0.5 11.0001 0.5C15.6381 0.5 19.5731 3.507 20.9631 7.678C21.0331 7.885 21.0331 8.109 20.9631 8.317C19.5771 12.49 15.6401 15.5 11.0001 15.5C6.36213 15.5 2.42613 12.493 1.03613 8.322Z" stroke="#2F2F2F" stroke-linecap="round" stroke-linejoin="round"/>
<path d="M14 8C14 8.79565 13.6839 9.55871 13.1213 10.1213C12.5587 10.6839 11.7956 11 11 11C10.2044 11 9.44129 10.6839 8.87868 10.1213C8.31607 9.55871 8 8.79565 8 8C8 7.20435 8.31607 6.44129 8.87868 5.87868C9.44129 5.31607 10.2044 5 11 5C11.7956 5 12.5587 5.31607 13.1213 5.87868C13.6839 6.44129 14 7.20435 14 8Z" stroke="#2F2F2F" stroke-linecap="round" stroke-linejoin="round"/>
</svg>
