<svg width="22" height="20" viewBox="0 0 22 20" fill="none" xmlns="http://www.w3.org/2000/svg">
<path d="M2.97959 6.223C2.04405 7.32718 1.34741 8.6132 0.933594 10C2.22559 14.338 6.24359 17.5 10.9996 17.5C11.9926 17.5 12.9526 17.362 13.8626 17.105M5.22759 4.228C6.94021 3.09781 8.94767 2.49682 10.9996 2.5C15.7556 2.5 19.7726 5.662 21.0646 9.998C20.3565 12.3673 18.8366 14.4115 16.7716 15.772M5.22759 4.228L1.99959 1M5.22759 4.228L8.87759 7.878M16.7716 15.772L19.9996 19M16.7716 15.772L13.1216 12.122C13.4002 11.8434 13.6212 11.5127 13.772 11.1486C13.9227 10.7846 14.0003 10.3945 14.0003 10.0005C14.0003 9.6065 13.9227 9.21636 13.772 8.85235C13.6212 8.48834 13.4002 8.1576 13.1216 7.879C12.843 7.6004 12.5122 7.3794 12.1482 7.22863C11.7842 7.07785 11.3941 7.00025 11.0001 7.00025C10.6061 7.00025 10.216 7.07785 9.85195 7.22863C9.48794 7.3794 9.15719 7.6004 8.87859 7.879M13.1206 12.121L8.87959 7.88" stroke="#2F2F2F" stroke-linecap="round" stroke-linejoin="round"/>
</svg>
