<svg width="23" height="30" viewBox="0 0 23 30" fill="none" xmlns="http://www.w3.org/2000/svg">
<path d="M0.260864 0.130371L2.3996 29.7887V29.8695H20.8121L22.9508 0.222693V0.130371H0.260864ZM20.0556 29.0386H3.16181L1.55776 6.8237H2.43942L3.88989 26.4017C3.89839 26.5048 3.94449 26.6009 4.01918 26.6714C4.09387 26.7418 4.19178 26.7814 4.29375 26.7825H4.32788C4.38096 26.7788 4.43281 26.7646 4.48044 26.7405C4.52807 26.7165 4.57055 26.6831 4.60543 26.6424C4.64032 26.6016 4.66692 26.5543 4.68372 26.5031C4.70051 26.4519 4.70716 26.3978 4.7033 26.344L3.25282 6.8237H21.6596L20.0556 29.0386ZM21.7165 5.9928H3.19025L2.87172 1.66522C2.86171 1.55964 2.81281 1.46178 2.73478 1.39119C2.65675 1.32059 2.55533 1.28245 2.4508 1.28439C2.34366 1.29467 2.24465 1.34673 2.17461 1.42961C2.10458 1.5125 2.069 1.61972 2.07538 1.72869L2.39391 5.99857H1.50088L1.13684 0.955496H22.0805L21.7165 5.9928Z" fill="#407BFF"/>
<path d="M6.77941 10.932C7.04491 10.932 7.30445 10.8521 7.52521 10.7025C7.74596 10.5529 7.91802 10.3402 8.01963 10.0914C8.12123 9.84253 8.14781 9.56873 8.09602 9.30458C8.04422 9.04043 7.91637 8.79779 7.72863 8.60734C7.54089 8.4169 7.3017 8.28721 7.0413 8.23466C6.7809 8.18212 6.51099 8.20909 6.2657 8.31215C6.02041 8.41522 5.81075 8.58976 5.66325 8.8137C5.51574 9.03763 5.43701 9.30091 5.43701 9.57024C5.43701 9.9314 5.57844 10.2778 5.83019 10.5331C6.08194 10.7885 6.42338 10.932 6.77941 10.932ZM6.77941 9.03362C6.88404 9.03362 6.98631 9.06509 7.07331 9.12406C7.1603 9.18302 7.2281 9.26683 7.26814 9.36489C7.30818 9.46294 7.31865 9.57084 7.29824 9.67493C7.27783 9.77902 7.22745 9.87464 7.15347 9.94969C7.07949 10.0247 6.98523 10.0758 6.88261 10.0966C6.78 10.1173 6.67363 10.1066 6.57697 10.066C6.48031 10.0254 6.39769 9.95662 6.33957 9.86837C6.28144 9.78012 6.25041 9.67638 6.25041 9.57024C6.25041 9.42792 6.30615 9.29143 6.40535 9.19079C6.50456 9.09016 6.63911 9.03362 6.77941 9.03362Z" fill="#407BFF"/>
<path d="M6.77379 15.3576C6.77716 15.6264 6.85889 15.8882 7.00868 16.1099C7.15847 16.3317 7.36962 16.5035 7.61552 16.6038C7.86142 16.704 8.13106 16.7282 8.39048 16.6733C8.64989 16.6183 8.88747 16.4867 9.07328 16.295C9.25908 16.1033 9.3848 15.8601 9.43458 15.5961C9.48437 15.332 9.45599 15.0589 9.35304 14.8112C9.25008 14.5635 9.07715 14.3523 8.85603 14.2041C8.63492 14.0559 8.37551 13.9774 8.1105 13.9785C7.93325 13.9793 7.7579 14.0156 7.59457 14.0855C7.43124 14.1553 7.28316 14.2573 7.15889 14.3855C7.03461 14.5137 6.9366 14.6656 6.8705 14.8325C6.8044 14.9993 6.77154 15.1778 6.77379 15.3576ZM8.6395 15.3576C8.6395 15.4637 8.60847 15.5675 8.55035 15.6557C8.49222 15.744 8.4096 15.8127 8.31294 15.8534C8.21628 15.894 8.10991 15.9046 8.0073 15.8839C7.90468 15.8632 7.81043 15.8121 7.73644 15.737C7.66246 15.662 7.61208 15.5664 7.59167 15.4623C7.57126 15.3582 7.58173 15.2503 7.62177 15.1522C7.66181 15.0542 7.72961 14.9704 7.81661 14.9114C7.9036 14.8524 8.00588 14.821 8.1105 14.821C8.2508 14.821 8.38535 14.8775 8.48456 14.9781C8.58376 15.0788 8.6395 15.2153 8.6395 15.3576Z" fill="#407BFF"/>
<path d="M16.3127 15.3924C16.5782 15.3924 16.8378 15.3126 17.0585 15.1629C17.2793 15.0133 17.4513 14.8006 17.553 14.5518C17.6546 14.303 17.6811 14.0292 17.6293 13.765C17.5775 13.5009 17.4497 13.2582 17.262 13.0678C17.0742 12.8773 16.835 12.7477 16.5746 12.6951C16.3142 12.6426 16.0443 12.6695 15.799 12.7726C15.5537 12.8757 15.3441 13.0502 15.1966 13.2741C15.0491 13.4981 14.9703 13.7614 14.9703 14.0307C14.9703 14.3918 15.1118 14.7382 15.3635 14.9936C15.6153 15.249 15.9567 15.3924 16.3127 15.3924ZM16.3127 13.4998C16.4176 13.4998 16.5201 13.5315 16.6072 13.5907C16.6943 13.6499 16.7621 13.7341 16.802 13.8325C16.8419 13.9309 16.852 14.039 16.8311 14.1433C16.8102 14.2475 16.7593 14.3431 16.6847 14.418C16.6102 14.4928 16.5154 14.5434 16.4124 14.5635C16.3094 14.5835 16.2029 14.5721 16.1063 14.5306C16.0098 14.4891 15.9276 14.4194 15.8701 14.3304C15.8127 14.2414 15.7826 14.1371 15.7837 14.0307C15.7852 13.8894 15.8416 13.7544 15.9407 13.655C16.0397 13.5556 16.1734 13.4998 16.3127 13.4998Z" fill="#407BFF"/>
<path d="M11.6371 12.8246C11.9026 12.8246 12.1621 12.7447 12.3829 12.5951C12.6036 12.4454 12.7757 12.2328 12.8773 11.9839C12.9789 11.7351 13.0055 11.4613 12.9537 11.1972C12.9019 10.933 12.774 10.6904 12.5863 10.4999C12.3986 10.3095 12.1594 10.1798 11.899 10.1272C11.6386 10.0747 11.3687 10.1017 11.1234 10.2047C10.8781 10.3078 10.6684 10.4823 10.5209 10.7063C10.3734 10.9302 10.2947 11.1935 10.2947 11.4628C10.2947 11.824 10.4361 12.1703 10.6879 12.4257C10.9396 12.6811 11.2811 12.8246 11.6371 12.8246ZM11.6371 10.9262C11.7417 10.9262 11.844 10.9577 11.931 11.0166C12.018 11.0756 12.0858 11.1594 12.1258 11.2575C12.1658 11.3555 12.1763 11.4634 12.1559 11.5675C12.1355 11.6716 12.0851 11.7672 12.0111 11.8423C11.9372 11.9173 11.8429 11.9684 11.7403 11.9891C11.6377 12.0098 11.5313 11.9992 11.4346 11.9586C11.338 11.918 11.2554 11.8492 11.1972 11.761C11.1391 11.6727 11.1081 11.569 11.1081 11.4628C11.1042 11.39 11.115 11.3171 11.1399 11.2486C11.1647 11.1801 11.2031 11.1175 11.2526 11.0646C11.3021 11.0117 11.3617 10.9695 11.4278 10.9408C11.494 10.912 11.5651 10.8972 11.6371 10.8973V10.9262Z" fill="#407BFF"/>
<path d="M9.07751 20.5451C9.08311 20.7664 9.15288 20.981 9.27811 21.1622C9.40334 21.3434 9.57846 21.4831 9.78157 21.5639C9.98468 21.6446 10.2067 21.6628 10.42 21.6162C10.6333 21.5696 10.8282 21.4602 10.9805 21.3018C11.1328 21.1433 11.2357 20.9428 11.2762 20.7254C11.3167 20.508 11.2932 20.2832 11.2085 20.0793C11.1237 19.8754 10.9816 19.7013 10.7999 19.5789C10.6181 19.4565 10.4049 19.3912 10.1867 19.3911C9.88994 19.3986 9.60783 19.5235 9.4006 19.7392C9.19337 19.9548 9.07742 20.244 9.07751 20.5451ZM10.1867 20.2451C10.2452 20.2451 10.3024 20.2627 10.351 20.2957C10.3997 20.3286 10.4376 20.3755 10.46 20.4303C10.4824 20.4851 10.4882 20.5455 10.4768 20.6037C10.4654 20.6619 10.4372 20.7153 10.3959 20.7573C10.3545 20.7993 10.3018 20.8278 10.2444 20.8394C10.187 20.851 10.1276 20.845 10.0735 20.8223C10.0195 20.7996 9.97327 20.7612 9.94077 20.7118C9.90826 20.6625 9.89092 20.6045 9.89092 20.5451C9.89092 20.4656 9.92208 20.3892 9.97755 20.333C10.033 20.2767 10.1083 20.2451 10.1867 20.2451Z" fill="#407BFF"/>
<path d="M14.4414 19.2927C14.6691 19.3007 14.894 19.2392 15.0868 19.1161C15.2797 18.9929 15.4317 18.8139 15.523 18.6022C15.6144 18.3904 15.641 18.1557 15.5994 17.9284C15.5577 17.7012 15.4497 17.4919 15.2894 17.3276C15.1292 17.1633 14.9239 17.0516 14.7003 17.007C14.4767 16.9624 14.2451 16.987 14.0354 17.0775C13.8258 17.168 13.6477 17.3203 13.5244 17.5146C13.401 17.709 13.338 17.9364 13.3436 18.1675C13.3507 18.4617 13.4683 18.742 13.6723 18.9512C13.8764 19.1603 14.1515 19.2825 14.4414 19.2927ZM14.4414 17.8675C14.5199 17.8675 14.5951 17.8991 14.6506 17.9554C14.706 18.0116 14.7372 18.088 14.7372 18.1675C14.7372 18.2471 14.706 18.3234 14.6506 18.3797C14.5951 18.436 14.5199 18.4676 14.4414 18.4676C14.3624 18.4676 14.2866 18.4362 14.2302 18.3801C14.1738 18.3239 14.1414 18.2476 14.1399 18.1675C14.1399 18.1276 14.1478 18.0881 14.163 18.0514C14.1782 18.0146 14.2005 17.9812 14.2286 17.9533C14.2566 17.9254 14.2899 17.9034 14.3265 17.8886C14.363 17.8739 14.4021 17.8667 14.4414 17.8675Z" fill="#407BFF"/>
<path d="M16.7848 9.97992C17.0098 9.97992 17.2298 9.91224 17.4169 9.78543C17.604 9.65862 17.7498 9.47839 17.8359 9.26752C17.922 9.05665 17.9445 8.82462 17.9006 8.60076C17.8567 8.3769 17.7484 8.17127 17.5893 8.00988C17.4302 7.84849 17.2275 7.73858 17.0068 7.69405C16.7861 7.64952 16.5574 7.67238 16.3495 7.75972C16.1416 7.84707 15.9639 7.99498 15.8389 8.18476C15.7139 8.37453 15.6472 8.59765 15.6472 8.8259C15.6472 9.13196 15.7671 9.42549 15.9804 9.64191C16.1938 9.85833 16.4831 9.97992 16.7848 9.97992ZM16.7848 8.5547C16.8289 8.54195 16.8752 8.53973 16.9202 8.54823C16.9652 8.55672 17.0077 8.5757 17.0442 8.60367C17.0808 8.63164 17.1104 8.66783 17.1308 8.7094C17.1512 8.75096 17.1619 8.79677 17.1619 8.84321C17.1619 8.88965 17.1512 8.93545 17.1308 8.97702C17.1104 9.01859 17.0808 9.05478 17.0442 9.08274C17.0077 9.11071 16.9652 9.12969 16.9202 9.13819C16.8752 9.14668 16.8289 9.14447 16.7848 9.13171C16.7408 9.14447 16.6945 9.14668 16.6495 9.13819C16.6045 9.12969 16.562 9.11071 16.5255 9.08274C16.4889 9.05478 16.4593 9.01859 16.4389 8.97702C16.4184 8.93545 16.4078 8.88965 16.4078 8.84321C16.4078 8.79677 16.4184 8.75096 16.4389 8.7094C16.4593 8.66783 16.4889 8.63164 16.5255 8.60367C16.562 8.5757 16.6045 8.55672 16.6495 8.54823C16.6945 8.53973 16.7408 8.54195 16.7848 8.5547Z" fill="#407BFF"/>
<path d="M5.66464 27.5903C5.61362 27.6142 5.56798 27.6484 5.53056 27.6909C5.49314 27.7334 5.46475 27.7833 5.44714 27.8374C5.42954 27.8915 5.4231 27.9487 5.42822 28.0055C5.43335 28.0623 5.44993 28.1173 5.47693 28.1673C5.51189 28.2347 5.56421 28.2912 5.62831 28.3308C5.69242 28.3705 5.76591 28.3917 5.84097 28.3923C5.90399 28.3941 5.96647 28.3803 6.02299 28.352C7.76094 27.4488 9.68445 26.9743 11.6372 26.9671C13.7037 26.9976 15.7414 27.4633 17.6211 28.3346C17.6955 28.374 17.78 28.3893 17.8632 28.3784C17.9464 28.3675 18.0243 28.3309 18.0863 28.2736C18.1484 28.2164 18.1916 28.1411 18.2101 28.0581C18.2286 27.9751 18.2216 27.8884 18.1899 27.8096C18.1499 27.7072 18.0724 27.6246 17.9738 27.5788C15.9837 26.6553 13.8254 26.164 11.6372 26.1362C9.56136 26.1381 7.51519 26.6362 5.66464 27.5903Z" fill="#407BFF"/>
</svg>
