<svg aria-hidden="true" style="position: absolute; width: 0; height: 0; overflow: hidden;" version="1.1" xmlns="http://www.w3.org/2000/svg" xmlns:xlink="http://www.w3.org/1999/xlink">
<defs>
<symbol id="icon-arrow-down" viewBox="0 0 32 32">
<path d="M16.942 23.609c-0.25 0.25-0.589 0.39-0.942 0.39s-0.692-0.14-0.942-0.39l-13.333-13.333c-0.236-0.253-0.364-0.587-0.358-0.932s0.146-0.675 0.39-0.919c0.244-0.244 0.574-0.384 0.919-0.39s0.68 0.122 0.933 0.358l12.391 12.391 12.391-12.391c0.122-0.131 0.269-0.236 0.433-0.309s0.34-0.112 0.519-0.115c0.179-0.003 0.357 0.030 0.523 0.097s0.317 0.167 0.444 0.293 0.226 0.277 0.294 0.443c0.067 0.166 0.1 0.344 0.097 0.523s-0.042 0.356-0.115 0.519-0.178 0.311-0.309 0.433l-13.333 13.333z"></path>
</symbol>
<symbol id="icon-arrow-to-left" viewBox="0 0 32 32">
<path d="M8.448 9.152c0.225 0.225 0.351 0.53 0.351 0.848s-0.126 0.623-0.351 0.848l-3.952 3.952h25.904c0.318 0 0.624 0.126 0.848 0.351s0.352 0.53 0.352 0.849-0.126 0.623-0.352 0.849c-0.225 0.225-0.53 0.351-0.848 0.351h-25.904l3.952 3.952c0.118 0.11 0.212 0.242 0.278 0.39s0.101 0.306 0.104 0.467c0.003 0.161-0.027 0.321-0.087 0.471s-0.15 0.285-0.264 0.399c-0.114 0.114-0.25 0.204-0.399 0.264s-0.309 0.090-0.471 0.087c-0.161-0.003-0.32-0.038-0.467-0.104s-0.28-0.16-0.39-0.278l-6-6c-0.225-0.225-0.351-0.53-0.351-0.848s0.126-0.623 0.351-0.848l6-6c0.225-0.225 0.53-0.351 0.848-0.351s0.623 0.126 0.848 0.351z"></path>
</symbol>
<symbol id="icon-calendar" viewBox="0 0 32 32">
<path fill="none" stroke="#407bff" stroke-width="2" stroke-miterlimit="4" stroke-linecap="round" stroke-linejoin="round" style="stroke: var(--color1, #407bff)" d="M7.25 1v3.75M24.75 1v3.75M1 27.25v-18.75c0-0.995 0.395-1.948 1.098-2.652s1.657-1.098 2.652-1.098h22.5c0.995 0 1.948 0.395 2.652 1.098s1.098 1.657 1.098 2.652v18.75M1 27.25c0 0.995 0.395 1.948 1.098 2.652s1.657 1.098 2.652 1.098h22.5c0.995 0 1.948-0.395 2.652-1.098s1.098-1.657 1.098-2.652M1 27.25v-12.5c0-0.995 0.395-1.948 1.098-2.652s1.657-1.098 2.652-1.098h22.5c0.995 0 1.948 0.395 2.652 1.098s1.098 1.657 1.098 2.652v12.5M16 17.25h0.013v0.013h-0.013v-0.013zM16 21h0.013v0.013h-0.013v-0.013zM16 24.75h0.013v0.013h-0.013v-0.013zM12.25 21h0.013v0.013h-0.013v-0.013zM12.25 24.75h0.013v0.013h-0.013v-0.013zM8.5 21h0.013v0.013h-0.013v-0.013zM8.5 24.75h0.013v0.013h-0.013v-0.013zM19.75 17.25h0.013v0.013h-0.013v-0.013zM19.75 21h0.013v0.013h-0.013v-0.013zM19.75 24.75h0.013v0.013h-0.013v-0.013zM23.5 17.25h0.013v0.013h-0.013v-0.013zM23.5 21h0.013v0.013h-0.013v-0.013z"></path>
</symbol>
<symbol id="icon-edit" viewBox="0 0 32 32">
<path stroke-width="1.5238" stroke-miterlimit="4" stroke-linecap="round" stroke-linejoin="round" d="M22.647 5.314l2.571-2.572c0.536-0.536 1.263-0.837 2.021-0.837s1.485 0.301 2.021 0.837c0.536 0.536 0.837 1.263 0.837 2.021s-0.301 1.485-0.837 2.021l-16.181 16.181c-0.806 0.805-1.799 1.397-2.891 1.722l-4.091 1.219 1.219-4.091c0.325-1.091 0.917-2.085 1.722-2.891l13.611-13.609zM22.647 5.314l4.020 4.020M24.381 19.81v7.238c0 0.909-0.361 1.782-1.004 2.424s-1.515 1.004-2.424 1.004h-16c-0.909 0-1.781-0.361-2.424-1.004s-1.004-1.515-1.004-2.424v-16c0-0.909 0.361-1.781 1.004-2.424s1.515-1.004 2.424-1.004h7.238"></path>
</symbol>
<symbol id="icon-exit" viewBox="0 0 32 32">
<path stroke-width="1.6" stroke-miterlimit="4" stroke-linecap="round" stroke-linejoin="round" d="M19.6 11.2v-6c0-0.955-0.379-1.87-1.054-2.546s-1.591-1.054-2.546-1.054h-9.6c-0.955 0-1.87 0.379-2.546 1.054s-1.054 1.591-1.054 2.546v21.6c0 0.955 0.379 1.87 1.054 2.546s1.591 1.054 2.546 1.054h9.6c0.955 0 1.87-0.379 2.546-1.054s1.054-1.591 1.054-2.546v-6M24.4 20.8l4.8-4.8M29.2 16l-4.8-4.8M29.2 16h-20.4"></path>
</symbol>
<symbol id="icon-minus" viewBox="0 0 32 32">
<path d="M0.571 16c0-0.455 0.181-0.891 0.502-1.212s0.758-0.502 1.212-0.502h27.429c0.455 0 0.891 0.181 1.212 0.502s0.502 0.758 0.502 1.212-0.181 0.891-0.502 1.212c-0.321 0.322-0.758 0.502-1.212 0.502h-27.429c-0.455 0-0.891-0.181-1.212-0.502s-0.502-0.758-0.502-1.212z"></path>
</symbol>
<symbol id="icon-plus" viewBox="0 0 32 32">
<path stroke-width="2.2857" stroke-miterlimit="4" stroke-linecap="round" stroke-linejoin="round" d="M16 2.286v27.429M29.714 16h-27.429"></path>
</symbol>
<symbol id="icon-plus-in-elipse" viewBox="0 0 32 32">
<path stroke-width="1.6" stroke-miterlimit="4" stroke-linecap="round" stroke-linejoin="round" d="M16 11.2v9.6M20.8 16h-9.6M30.4 16c0 1.891-0.372 3.764-1.096 5.511s-1.784 3.334-3.121 4.672c-1.337 1.337-2.925 2.398-4.672 3.121s-3.62 1.096-5.511 1.096-3.764-0.372-5.511-1.096c-1.747-0.724-3.335-1.784-4.672-3.121s-2.398-2.925-3.122-4.672c-0.724-1.747-1.096-3.62-1.096-5.511 0-3.819 1.517-7.482 4.218-10.182s6.363-4.218 10.182-4.218c3.819 0 7.482 1.517 10.182 4.218s4.218 6.363 4.218 10.182z"></path>
</symbol>
<symbol id="icon-presentation" viewBox="0 0 32 32">
<path fill="none" stroke="#407bff" stroke-width="1.7778" stroke-miterlimit="4" stroke-linecap="round" stroke-linejoin="round" style="stroke: var(--color1, #407bff)" d="M3.778 2.667v16.667c0 0.884 0.351 1.732 0.976 2.357s1.473 0.976 2.357 0.976h3.333M3.778 2.667h-2.222M3.778 2.667h24.444M10.444 22.667h11.111M10.444 22.667l-1.482 4.444M28.222 2.667h2.222M28.222 2.667v16.667c0 0.884-0.351 1.732-0.976 2.357s-1.473 0.976-2.357 0.976h-3.333M21.556 22.667l1.482 4.444M8.963 27.111h14.074M8.963 27.111l-0.741 2.222M23.037 27.111l0.741 2.222M11.556 14.889v2.222M16 11.556v5.556M20.444 8.222v8.889"></path>
</symbol>
<symbol id="icon-send" viewBox="0 0 32 32">
<path stroke-width="1.6" stroke-miterlimit="4" stroke-linecap="round" stroke-linejoin="round" d="M1.6 23.2v3.6c0 0.955 0.379 1.87 1.054 2.546s1.591 1.054 2.546 1.054h21.6c0.955 0 1.87-0.379 2.546-1.054s1.054-1.591 1.054-2.546v-3.6M8.8 8.8l7.2-7.2M16 1.6l7.2 7.2M16 1.6v21.6"></path>
</symbol>
<symbol id="icon-settings" viewBox="0 0 32 32">
<path stroke-width="1.6" stroke-miterlimit="4" stroke-linecap="round" stroke-linejoin="round" d="M12.15 3.104c0.144-0.867 0.896-1.504 1.776-1.504h4.149c0.88 0 1.632 0.637 1.776 1.504l0.341 2.050c0.101 0.598 0.501 1.098 1.032 1.392 0.118 0.064 0.235 0.133 0.352 0.203 0.518 0.314 1.152 0.411 1.72 0.198l1.947-0.73c0.399-0.15 0.838-0.154 1.24-0.010s0.739 0.425 0.952 0.794l2.074 3.595c0.213 0.369 0.288 0.802 0.212 1.221s-0.299 0.798-0.628 1.069l-1.605 1.323c-0.469 0.384-0.701 0.981-0.69 1.587 0.003 0.136 0.003 0.272 0 0.408-0.011 0.605 0.221 1.2 0.688 1.584l1.608 1.325c0.678 0.56 0.854 1.526 0.416 2.288l-2.077 3.595c-0.213 0.369-0.55 0.651-0.951 0.794s-0.84 0.141-1.239-0.009l-1.947-0.73c-0.568-0.213-1.2-0.115-1.722 0.198-0.116 0.071-0.233 0.139-0.352 0.205-0.53 0.293-0.93 0.792-1.030 1.39l-0.341 2.048c-0.144 0.869-0.896 1.506-1.776 1.506h-4.15c-0.88 0-1.632-0.637-1.776-1.504l-0.341-2.050c-0.099-0.598-0.499-1.098-1.030-1.392-0.119-0.065-0.236-0.133-0.352-0.203-0.52-0.314-1.152-0.411-1.722-0.198l-1.947 0.73c-0.399 0.15-0.838 0.153-1.239 0.009s-0.738-0.425-0.952-0.793l-2.075-3.595c-0.213-0.369-0.288-0.802-0.212-1.221s0.299-0.798 0.628-1.068l1.606-1.323c0.467-0.384 0.699-0.981 0.688-1.587-0.003-0.136-0.003-0.272 0-0.408 0.011-0.605-0.221-1.2-0.688-1.584l-1.606-1.325c-0.329-0.271-0.551-0.649-0.627-1.068s-0.001-0.851 0.211-1.22l2.075-3.595c0.213-0.369 0.55-0.651 0.952-0.795s0.841-0.141 1.24 0.009l1.946 0.73c0.57 0.213 1.202 0.115 1.722-0.198 0.115-0.070 0.234-0.139 0.352-0.205 0.531-0.293 0.931-0.792 1.030-1.39l0.342-2.050z"></path>
<path stroke-width="1.6" stroke-miterlimit="4" stroke-linecap="round" stroke-linejoin="round" d="M20.8 16c0 1.273-0.506 2.494-1.406 3.394s-2.121 1.406-3.394 1.406c-1.273 0-2.494-0.506-3.394-1.406s-1.406-2.121-1.406-3.394c0-1.273 0.506-2.494 1.406-3.394s2.121-1.406 3.394-1.406c1.273 0 2.494 0.506 3.394 1.406s1.406 2.121 1.406 3.394z"></path>
</symbol>
<symbol id="icon-tools" viewBox="0 0 32 32">
<path fill="none" stroke="#407bff" stroke-width="1.7778" stroke-miterlimit="4" stroke-linecap="round" stroke-linejoin="round" style="stroke: var(--color1, #407bff)" d="M15.141 20.696l8.637 8.637c0.741 0.717 1.734 1.114 2.765 1.106s2.017-0.422 2.746-1.151c0.729-0.729 1.142-1.715 1.151-2.746s-0.389-2.024-1.106-2.765l-8.707-8.707M15.141 20.696l3.698-4.489c0.47-0.569 1.096-0.927 1.79-1.135 0.815-0.243 1.723-0.279 2.582-0.207 1.158 0.099 2.322-0.106 3.377-0.595s1.963-1.246 2.634-2.195 1.084-2.057 1.195-3.214c0.111-1.157-0.082-2.323-0.56-3.383l-4.853 4.855c-0.812-0.188-1.555-0.6-2.144-1.189s-1.001-1.332-1.189-2.144l4.853-4.853c-1.059-0.479-2.226-0.672-3.383-0.56s-2.265 0.523-3.214 1.195-1.705 1.58-2.195 2.634c-0.489 1.054-0.695 2.219-0.595 3.377 0.135 1.594-0.105 3.354-1.339 4.37l-0.151 0.126M15.141 20.696l-6.896 8.375c-0.334 0.407-0.75 0.74-1.221 0.977s-0.986 0.373-1.512 0.399c-0.526 0.026-1.052-0.059-1.544-0.248s-0.938-0.48-1.311-0.853-0.663-0.819-0.853-1.311c-0.19-0.492-0.274-1.018-0.248-1.544s0.162-1.041 0.399-1.512c0.237-0.471 0.57-0.887 0.977-1.221l10.129-8.341-6.084-6.084h-2.087l-3.333-5.556 2.222-2.222 5.556 3.333v2.087l6.311 6.311-2.585 2.129M25.444 25.444l-3.889-3.889M5.433 26.556h0.012v0.012h-0.012v-0.012z"></path>
</symbol>
<symbol id="icon-trash-can" viewBox="0 0 32 32">
<path stroke-width="1.4545" stroke-miterlimit="4" stroke-linecap="round" stroke-linejoin="round" d="M19.985 11.636l-0.503 13.091M12.518 24.727l-0.503-13.091M26.513 6.967c0.497 0.076 0.992 0.156 1.487 0.241M26.513 6.967l-1.553 20.193c-0.063 0.822-0.435 1.59-1.040 2.15s-1.399 0.871-2.224 0.871h-11.392c-0.825 0-1.619-0.311-2.224-0.871s-0.977-1.328-1.040-2.15l-1.553-20.193M26.513 6.967c-1.679-0.254-3.366-0.446-5.059-0.577M5.487 6.967c-0.497 0.074-0.992 0.154-1.487 0.24M5.487 6.967c1.679-0.254 3.366-0.446 5.059-0.577M21.455 6.389v-1.332c0-1.716-1.324-3.148-3.040-3.201-1.609-0.051-3.22-0.051-4.829 0-1.716 0.054-3.040 1.487-3.040 3.201v1.332M21.455 6.389c-3.631-0.281-7.278-0.281-10.909 0"></path>
</symbol>
<symbol id="icon-user" viewBox="0 0 32 32">
<path stroke-width="1.3333" stroke-miterlimit="4" stroke-linecap="butt" stroke-linejoin="miter" d="M31.333 16c0 8.468-6.865 15.333-15.333 15.333s-15.333-6.865-15.333-15.333c0-8.468 6.865-15.333 15.333-15.333s15.333 6.865 15.333 15.333z"></path>
<path stroke-width="1.3333" stroke-miterlimit="4" stroke-linecap="round" stroke-linejoin="round" d="M20.001 9.436c0 1.088-0.421 2.132-1.172 2.901s-1.768 1.202-2.829 1.202c-1.061 0-2.079-0.432-2.829-1.202s-1.172-1.813-1.172-2.901c0-1.088 0.421-2.132 1.172-2.901s1.768-1.202 2.829-1.202c1.061 0 2.079 0.432 2.829 1.202s1.172 1.813 1.172 2.901zM8 24.881c0.034-2.153 0.892-4.205 2.389-5.715s3.512-2.356 5.611-2.356c2.099 0 4.115 0.846 5.611 2.356s2.355 3.562 2.389 5.715c-2.51 1.18-5.239 1.789-8 1.785-2.855 0-5.564-0.639-8-1.785z"></path>
</symbol>
<symbol id="icon-vision" viewBox="0 0 32 32">
<path stroke-width="1.4545" stroke-miterlimit="4" stroke-linecap="round" stroke-linejoin="round" d="M1.507 16.468c-0.1-0.302-0.1-0.628 0-0.929 2.017-6.070 7.744-10.448 14.493-10.448 6.746 0 12.47 4.374 14.492 10.441 0.102 0.301 0.102 0.627 0 0.929-2.016 6.070-7.743 10.448-14.492 10.448-6.746 0-12.471-4.374-14.493-10.441z"></path>
<path stroke-width="1.4545" stroke-miterlimit="4" stroke-linecap="round" stroke-linejoin="round" d="M20.364 16c0 1.157-0.46 2.267-1.278 3.086s-1.928 1.278-3.086 1.278c-1.157 0-2.267-0.46-3.086-1.278s-1.278-1.928-1.278-3.086c0-1.157 0.46-2.267 1.278-3.086s1.928-1.278 3.086-1.278c1.157 0 2.267 0.46 3.086 1.278s1.278 1.928 1.278 3.086z"></path>
</symbol>
<symbol id="icon-vision-crossed" viewBox="0 0 32 32">
<path stroke-width="1.4545" stroke-miterlimit="4" stroke-linecap="round" stroke-linejoin="round" d="M4.334 10.506c-1.361 1.606-2.374 3.477-2.976 5.494 1.879 6.31 7.724 10.909 14.641 10.909 1.444 0 2.841-0.201 4.164-0.575M7.604 7.604c2.491-1.644 5.411-2.518 8.396-2.513 6.918 0 12.761 4.599 14.64 10.906-1.030 3.446-3.241 6.42-6.244 8.399M7.604 7.604l-4.695-4.695M7.604 7.604l5.309 5.309M24.395 24.396l4.695 4.695M24.395 24.396l-5.309-5.309c0.405-0.405 0.727-0.886 0.946-1.416s0.332-1.097 0.332-1.67-0.113-1.141-0.332-1.67c-0.219-0.529-0.541-1.011-0.946-1.416s-0.886-0.727-1.416-0.946c-0.529-0.219-1.097-0.332-1.67-0.332s-1.14 0.113-1.67 0.332c-0.529 0.219-1.011 0.541-1.416 0.946M19.084 19.085l-6.169-6.169"></path>
</symbol>
<symbol id="icon-water-glass" viewBox="0 0 32 32">
<path fill="#407bff" style="fill: var(--color1, #407bff)" d="M4.012 0.139l2.281 31.636v0.086h19.64l2.281-31.623v-0.098h-24.203zM25.126 30.974h-18.020l-1.711-23.696h0.94l1.547 20.883c0.009 0.11 0.058 0.212 0.138 0.288s0.184 0.117 0.293 0.119h0.036c0.057-0.004 0.112-0.019 0.163-0.045s0.096-0.061 0.133-0.105c0.037-0.044 0.066-0.094 0.084-0.149s0.025-0.112 0.021-0.17l-1.547-20.822h19.634l-1.711 23.696zM26.898 6.392h-19.761l-0.34-4.616c-0.011-0.113-0.063-0.217-0.146-0.292s-0.191-0.116-0.303-0.114c-0.114 0.011-0.22 0.067-0.295 0.155s-0.113 0.203-0.106 0.319l0.34 4.555h-0.953l-0.388-5.379h22.34l-0.388 5.373z"></path>
<path fill="#407bff" style="fill: var(--color1, #407bff)" d="M10.965 11.661c0.283 0 0.56-0.085 0.796-0.245s0.419-0.386 0.527-0.652c0.108-0.265 0.137-0.557 0.081-0.839s-0.192-0.541-0.392-0.744c-0.2-0.203-0.455-0.341-0.733-0.398s-0.566-0.027-0.827 0.083c-0.262 0.11-0.485 0.296-0.643 0.535s-0.241 0.52-0.241 0.807c0 0.385 0.151 0.755 0.419 1.027s0.633 0.425 1.012 0.425zM10.965 9.636c0.112 0 0.221 0.034 0.313 0.096s0.165 0.152 0.208 0.257c0.043 0.105 0.054 0.22 0.032 0.331s-0.075 0.213-0.154 0.293c-0.079 0.080-0.179 0.135-0.289 0.157s-0.223 0.011-0.326-0.033-0.191-0.117-0.253-0.211c-0.062-0.094-0.095-0.205-0.095-0.318 0-0.152 0.059-0.297 0.165-0.405s0.249-0.168 0.399-0.168z"></path>
<path fill="#407bff" style="fill: var(--color1, #407bff)" d="M10.959 16.381c0.004 0.287 0.091 0.566 0.251 0.802s0.385 0.42 0.647 0.527c0.262 0.107 0.55 0.133 0.827 0.074s0.53-0.199 0.728-0.404 0.332-0.464 0.385-0.745c0.053-0.282 0.023-0.573-0.087-0.837s-0.294-0.489-0.53-0.648c-0.236-0.158-0.513-0.242-0.795-0.241-0.189 0.001-0.376 0.040-0.55 0.114s-0.332 0.183-0.465 0.32-0.237 0.299-0.308 0.477c-0.070 0.178-0.106 0.368-0.103 0.56zM12.949 16.381c0 0.113-0.033 0.224-0.095 0.318s-0.15 0.167-0.253 0.211c-0.103 0.043-0.217 0.055-0.326 0.033s-0.21-0.077-0.289-0.157c-0.079-0.080-0.133-0.182-0.154-0.293s-0.011-0.226 0.032-0.331c0.043-0.105 0.115-0.194 0.208-0.257s0.202-0.096 0.313-0.096c0.15 0 0.293 0.060 0.399 0.168s0.165 0.253 0.165 0.405z"></path>
<path fill="#407bff" style="fill: var(--color1, #407bff)" d="M21.134 16.419c0.283 0 0.56-0.085 0.796-0.245s0.419-0.386 0.527-0.652c0.108-0.265 0.137-0.557 0.081-0.839s-0.192-0.541-0.392-0.744c-0.2-0.203-0.455-0.341-0.733-0.398s-0.566-0.027-0.827 0.083-0.485 0.296-0.643 0.535c-0.157 0.239-0.241 0.52-0.241 0.807 0 0.385 0.151 0.755 0.419 1.027s0.633 0.425 1.012 0.425zM21.134 14.4c0.112 0 0.221 0.034 0.314 0.097s0.165 0.153 0.208 0.258c0.043 0.105 0.053 0.22 0.031 0.332s-0.077 0.213-0.156 0.293c-0.079 0.080-0.181 0.134-0.29 0.155s-0.223 0.009-0.326-0.035c-0.103-0.044-0.191-0.119-0.252-0.214s-0.093-0.206-0.092-0.32c0.002-0.151 0.062-0.295 0.167-0.401s0.248-0.166 0.397-0.166z"></path>
<path fill="#407bff" style="fill: var(--color1, #407bff)" d="M16.146 13.68c0.283 0 0.56-0.085 0.796-0.245s0.419-0.386 0.527-0.652c0.108-0.265 0.137-0.557 0.081-0.839s-0.192-0.541-0.392-0.744c-0.2-0.203-0.455-0.341-0.733-0.398s-0.566-0.027-0.827 0.083c-0.262 0.11-0.485 0.296-0.643 0.535s-0.241 0.52-0.241 0.807c0 0.385 0.151 0.755 0.419 1.027s0.633 0.425 1.012 0.425zM16.146 11.655c0.112 0 0.221 0.034 0.314 0.096s0.165 0.152 0.208 0.257c0.043 0.105 0.054 0.22 0.032 0.331s-0.076 0.213-0.154 0.293c-0.079 0.080-0.179 0.134-0.289 0.157s-0.223 0.011-0.326-0.033c-0.103-0.043-0.191-0.117-0.253-0.211s-0.095-0.205-0.095-0.318c-0.004-0.078 0.007-0.155 0.034-0.228s0.067-0.14 0.12-0.196 0.116-0.101 0.187-0.132c0.071-0.031 0.146-0.046 0.223-0.046v0.031z"></path>
<path fill="#407bff" style="fill: var(--color1, #407bff)" d="M13.416 21.915c0.006 0.236 0.080 0.465 0.214 0.658s0.32 0.342 0.537 0.428c0.217 0.086 0.453 0.105 0.681 0.056s0.435-0.166 0.598-0.335c0.162-0.169 0.272-0.383 0.315-0.615s0.018-0.472-0.072-0.689c-0.090-0.218-0.242-0.403-0.436-0.534s-0.421-0.2-0.654-0.2c-0.317 0.008-0.617 0.141-0.838 0.371s-0.345 0.538-0.345 0.86zM14.599 21.595c0.062 0 0.123 0.019 0.175 0.054s0.092 0.085 0.116 0.144 0.030 0.123 0.018 0.185c-0.012 0.062-0.042 0.119-0.086 0.164s-0.1 0.075-0.162 0.088-0.125 0.006-0.182-0.018c-0.058-0.024-0.107-0.065-0.142-0.118s-0.053-0.114-0.053-0.178c0-0.085 0.033-0.166 0.092-0.226s0.139-0.094 0.223-0.094z"></path>
<path fill="#407bff" style="fill: var(--color1, #407bff)" d="M19.137 20.579c0.243 0.009 0.483-0.057 0.688-0.188s0.368-0.322 0.465-0.548c0.098-0.226 0.126-0.476 0.081-0.719s-0.16-0.466-0.331-0.641c-0.171-0.175-0.39-0.294-0.628-0.342s-0.486-0.021-0.709 0.075c-0.224 0.097-0.414 0.259-0.545 0.466s-0.199 0.45-0.193 0.696c0.008 0.314 0.133 0.613 0.351 0.836s0.511 0.353 0.82 0.364zM19.137 19.059c0.084 0 0.164 0.034 0.223 0.094s0.092 0.141 0.092 0.226c0 0.085-0.033 0.166-0.092 0.226s-0.139 0.094-0.223 0.094c-0.084 0-0.165-0.034-0.225-0.093s-0.095-0.141-0.096-0.227c0-0.043 0.008-0.085 0.025-0.124s0.040-0.075 0.070-0.105c0.030-0.030 0.065-0.053 0.104-0.069s0.081-0.023 0.123-0.023z"></path>
<path fill="#407bff" style="fill: var(--color1, #407bff)" d="M21.637 10.645c0.24 0 0.475-0.072 0.674-0.207s0.355-0.328 0.447-0.552c0.092-0.225 0.116-0.472 0.069-0.711s-0.162-0.458-0.332-0.63c-0.17-0.172-0.386-0.289-0.621-0.337s-0.479-0.023-0.701 0.070c-0.222 0.093-0.411 0.251-0.545 0.453s-0.204 0.44-0.204 0.684c0 0.326 0.128 0.64 0.355 0.87s0.536 0.361 0.858 0.361zM21.637 9.125c0.047-0.014 0.096-0.016 0.144-0.007s0.093 0.029 0.132 0.059c0.039 0.030 0.071 0.068 0.092 0.113s0.033 0.093 0.033 0.143c0 0.050-0.011 0.098-0.033 0.143s-0.053 0.083-0.092 0.113c-0.039 0.030-0.084 0.050-0.132 0.059s-0.097 0.007-0.144-0.007c-0.047 0.014-0.096 0.016-0.144 0.007s-0.093-0.029-0.132-0.059c-0.039-0.030-0.071-0.068-0.092-0.113s-0.033-0.093-0.033-0.143 0.011-0.098 0.033-0.143c0.022-0.044 0.053-0.083 0.092-0.113s0.084-0.050 0.132-0.059 0.097-0.007 0.144 0.007z"></path>
<path fill="#407bff" style="fill: var(--color1, #407bff)" d="M9.776 29.43c-0.054 0.026-0.103 0.062-0.143 0.107s-0.070 0.099-0.089 0.156c-0.019 0.058-0.026 0.119-0.020 0.179s0.023 0.119 0.052 0.173c0.037 0.072 0.093 0.132 0.161 0.174s0.147 0.065 0.227 0.066c0.067 0.002 0.134-0.013 0.194-0.043 1.854-0.963 3.906-1.47 5.988-1.477 2.204 0.033 4.378 0.529 6.383 1.459 0.079 0.042 0.169 0.058 0.258 0.047s0.172-0.051 0.238-0.112c0.066-0.061 0.112-0.141 0.132-0.23s0.012-0.181-0.022-0.265c-0.043-0.109-0.125-0.197-0.23-0.246-2.123-0.985-4.425-1.509-6.759-1.539-2.214 0.002-4.397 0.533-6.371 1.551z"></path>
</symbol>
<symbol id="icon-cross" viewBox="0 0 32 32">
<path d="M31.708 25.708c-0-0-0-0-0-0l-9.708-9.708 9.708-9.708c0-0 0-0 0-0 0.105-0.105 0.18-0.227 0.229-0.357 0.133-0.356 0.057-0.771-0.229-1.057l-4.586-4.586c-0.286-0.286-0.702-0.361-1.057-0.229-0.13 0.048-0.252 0.124-0.357 0.228 0 0-0 0-0 0l-9.708 9.708-9.708-9.708c-0-0-0-0-0-0-0.105-0.104-0.227-0.18-0.357-0.228-0.356-0.133-0.771-0.057-1.057 0.229l-4.586 4.586c-0.286 0.286-0.361 0.702-0.229 1.057 0.049 0.13 0.124 0.252 0.229 0.357 0 0 0 0 0 0l9.708 9.708-9.708 9.708c-0 0-0 0-0 0-0.104 0.105-0.18 0.227-0.229 0.357-0.133 0.355-0.057 0.771 0.229 1.057l4.586 4.586c0.286 0.286 0.702 0.361 1.057 0.229 0.13-0.049 0.252-0.124 0.357-0.229 0-0 0-0 0-0l9.708-9.708 9.708 9.708c0 0 0 0 0 0 0.105 0.105 0.227 0.18 0.357 0.229 0.356 0.133 0.771 0.057 1.057-0.229l4.586-4.586c0.286-0.286 0.362-0.702 0.229-1.057-0.049-0.13-0.124-0.252-0.229-0.357z"></path>
</symbol>

<symbol id="icon-outline" viewBox="0 0 32 32">
<path fill="none" stroke="#407bff" style="stroke: var(--color1, #407bff)" stroke-linejoin="round" stroke-linecap="round" stroke-miterlimit="4" stroke-width="2" d="M8 24l16-16M8 8l16 16"></path>
</symbol>

</defs>
</svg>
