<?xml version="1.0" encoding="UTF-8"?>
<svg xmlns="http://www.w3.org/2000/svg" xmlns:xlink="http://www.w3.org/1999/xlink" width="0" height="0">
<symbol id="minus" width="14" height="2" viewBox="0 0 14 2" fill="none">
<path fill-rule="evenodd" clip-rule="evenodd" d="M0.25 1C0.25 0.801088 0.329018 0.610323 0.46967 0.46967C0.610322 0.329018 0.801088 0.25 1 0.25H13C13.1989 0.25 13.3897 0.329018 13.5303 0.46967C13.671 0.610323 13.75 0.801088 13.75 1C13.75 1.19891 13.671 1.38968 13.5303 1.53033C13.3897 1.67098 13.1989 1.75 13 1.75H1C0.801088 1.75 0.610322 1.67098 0.46967 1.53033C0.329018 1.38968 0.25 1.19891 0.25 1Z" fill="#2F2F2F"/>
</symbol>

<symbol id="plus" width="14" height="14" viewBox="0 0 14 14" fill="none">
<path d="M7 1V13M13 7H1" stroke="#2F2F2F" stroke-linecap="round" stroke-linejoin="round"/>
</symbol>

<symbol id="plus-in-elipse" width="20" height="20" viewBox="0 0 20 20" fill="none">
<path d="M10 7V13M13 10H7M19 10C19 11.1819 18.7672 12.3522 18.3149 13.4442C17.8626 14.5361 17.1997 15.5282 16.364 16.364C15.5282 17.1997 14.5361 17.8626 13.4442 18.3149C12.3522 18.7672 11.1819 19 10 19C8.8181 19 7.64778 18.7672 6.55585 18.3149C5.46392 17.8626 4.47177 17.1997 3.63604 16.364C2.80031 15.5282 2.13738 14.5361 1.68508 13.4442C1.23279 12.3522 1 11.1819 1 10C1 7.61305 1.94821 5.32387 3.63604 3.63604C5.32387 1.94821 7.61305 1 10 1C12.3869 1 14.6761 1.94821 16.364 3.63604C18.0518 5.32387 19 7.61305 19 10Z" stroke="#2F2F2F" stroke-linecap="round" stroke-linejoin="round"/>
</symbol>

<symbol id="presentation" width="36" height="32" viewBox="0 0 36 32" fill="none">
<path d="M4.25 1V19.75C4.25 20.7446 4.64509 21.6984 5.34835 22.4016C6.05161 23.1049 7.00544 23.5 8 23.5H11.75M4.25 1H1.75M4.25 1H31.75M11.75 23.5H24.25M11.75 23.5L10.0833 28.5M31.75 1H34.25M31.75 1V19.75C31.75 20.7446 31.3549 21.6984 30.6516 22.4016C29.9484 23.1049 28.9946 23.5 28 23.5H24.25M24.25 23.5L25.9167 28.5M10.0833 28.5H25.9167M10.0833 28.5L9.25 31M25.9167 28.5L26.75 31M13 14.75V17.25M18 11V17.25M23 7.25V17.25" stroke="#407BFF" stroke-width="2" stroke-linecap="round" stroke-linejoin="round"/>
</symbol>

<symbol id="send" width="20" height="20" viewBox="0 0 20 20" fill="none">
<path d="M1 14.5V16.75C1 17.3467 1.23705 17.919 1.65901 18.341C2.08097 18.7629 2.65326 19 3.25 19H16.75C17.3467 19 17.919 18.7629 18.341 18.341C18.7629 17.919 19 17.3467 19 16.75V14.5M5.5 5.5L10 1M10 1L14.5 5.5M10 1V14.5" stroke="#2F2F2F" stroke-linecap="round" stroke-linejoin="round"/>
</symbol>

<symbol id="settings" width="20" height="20" viewBox="0 0 20 20" fill="none">
<path d="M7.59372 1.94C7.68372 1.398 8.15372 1 8.70372 1H11.2967C11.8467 1 12.3167 1.398 12.4067 1.94L12.6197 3.221C12.6827 3.595 12.9327 3.907 13.2647 4.091C13.3387 4.131 13.4117 4.174 13.4847 4.218C13.8087 4.414 14.2047 4.475 14.5597 4.342L15.7767 3.886C16.0261 3.79221 16.3007 3.78998 16.5516 3.87971C16.8025 3.96945 17.0134 4.14531 17.1467 4.376L18.4427 6.623C18.5758 6.8537 18.6227 7.12413 18.5751 7.38617C18.5275 7.6482 18.3884 7.88485 18.1827 8.054L17.1797 8.881C16.8867 9.121 16.7417 9.494 16.7487 9.873C16.7503 9.95799 16.7503 10.043 16.7487 10.128C16.7417 10.506 16.8867 10.878 17.1787 11.118L18.1837 11.946C18.6077 12.296 18.7177 12.9 18.4437 13.376L17.1457 15.623C17.0126 15.8536 16.8019 16.0296 16.5512 16.1195C16.3005 16.2094 16.0261 16.2074 15.7767 16.114L14.5597 15.658C14.2047 15.525 13.8097 15.586 13.4837 15.782C13.4112 15.8261 13.3379 15.8688 13.2637 15.91C12.9327 16.093 12.6827 16.405 12.6197 16.779L12.4067 18.059C12.3167 18.602 11.8467 19 11.2967 19H8.70272C8.15272 19 7.68272 18.602 7.59272 18.06L7.37972 16.779C7.31772 16.405 7.06772 16.093 6.73572 15.909C6.66157 15.8681 6.58822 15.8258 6.51572 15.782C6.19072 15.586 5.79572 15.525 5.43972 15.658L4.22272 16.114C3.97345 16.2075 3.69908 16.2096 3.44842 16.1199C3.19775 16.0302 2.98703 15.8545 2.85372 15.624L1.55672 13.377C1.42366 13.1463 1.37676 12.8759 1.42437 12.6138C1.47198 12.3518 1.61101 12.1152 1.81672 11.946L2.82072 11.119C3.11272 10.879 3.25772 10.506 3.25072 10.127C3.24915 10.042 3.24915 9.95699 3.25072 9.872C3.25772 9.494 3.11272 9.122 2.82072 8.882L1.81672 8.054C1.61126 7.88489 1.47239 7.64843 1.42479 7.38662C1.37719 7.12481 1.42393 6.8546 1.55672 6.624L2.85372 4.377C2.9869 4.14614 3.19773 3.97006 3.44863 3.88014C3.69953 3.79021 3.97421 3.79229 4.22372 3.886L5.43972 4.342C5.79572 4.475 6.19072 4.414 6.51572 4.218C6.58772 4.174 6.66172 4.131 6.73572 4.09C7.06772 3.907 7.31772 3.595 7.37972 3.221L7.59372 1.94Z" stroke="#2F2F2F" stroke-linecap="round" stroke-linejoin="round"/>
<path d="M13 10C13 10.7956 12.6839 11.5587 12.1213 12.1213C11.5587 12.6839 10.7956 13 10 13C9.20435 13 8.44129 12.6839 7.87868 12.1213C7.31607 11.5587 7 10.7956 7 10C7 9.20435 7.31607 8.44129 7.87868 7.87868C8.44129 7.31607 9.20435 7 10 7C10.7956 7 11.5587 7.31607 12.1213 7.87868C12.6839 8.44129 13 9.20435 13 10Z" stroke="#2F2F2F" stroke-linecap="round" stroke-linejoin="round"/>
</symbol>

<symbol id="tools" width="36" height="36" viewBox="0 0 36 36" fill="none">
<path d="M17.0333 23.2833L26.75 33C27.5833 33.8067 28.7003 34.2535 29.8601 34.2441C31.0199 34.2347 32.1295 33.7698 32.9497 32.9497C33.7698 32.1295 34.2347 31.0199 34.2441 29.8601C34.2535 28.7003 33.8067 27.5833 33 26.75L23.205 16.955M17.0333 23.2833L21.1933 18.2333C21.7217 17.5933 22.4267 17.19 23.2067 16.9567C24.1233 16.6833 25.145 16.6433 26.1117 16.7233C27.4147 16.8352 28.7244 16.6044 29.9107 16.0539C31.097 15.5033 32.1187 14.6521 32.8744 13.5847C33.6301 12.5173 34.0936 11.2708 34.2188 9.969C34.3441 8.66717 34.1267 7.35521 33.5883 6.16333L28.1283 11.625C27.2148 11.4138 26.379 10.9503 25.716 10.2873C25.0531 9.62431 24.5896 8.78849 24.3783 7.875L29.8383 2.415C28.6464 1.87661 27.3345 1.65924 26.0327 1.78447C24.7308 1.90971 23.4844 2.37318 22.417 3.12891C21.3496 3.88465 20.4984 4.90636 19.9478 6.09266C19.3972 7.27896 19.1664 8.58862 19.2783 9.89167C19.43 11.685 19.16 13.665 17.7717 14.8083L17.6017 14.95M17.0333 23.2833L9.27499 32.705C8.89898 33.1633 8.43116 33.5379 7.90165 33.8045C7.37215 34.0711 6.79268 34.2239 6.20055 34.2531C5.60842 34.2822 5.01674 34.1871 4.46361 33.9737C3.91048 33.7604 3.40814 33.4336 2.98894 33.0144C2.56973 32.5952 2.24294 32.0928 2.0296 31.5397C1.81627 30.9866 1.72111 30.3949 1.75025 29.8028C1.7794 29.2107 1.9322 28.6312 2.19882 28.1017C2.46544 27.5722 2.83998 27.1043 3.29833 26.7283L14.6933 17.345L7.84833 10.5H5.49999L1.75 4.25L4.24999 1.75L10.5 5.5V7.84833L17.6 14.9483L14.6917 17.3433M28.625 28.625L24.25 24.25M6.11166 29.875H6.12499V29.8883H6.11166V29.875Z" stroke="#407BFF" stroke-width="2" stroke-linecap="round" stroke-linejoin="round"/>
</symbol>

<symbol id="trash" width="18" height="22" viewBox="0 0 18 22" fill="none">
<path d="M11.74 7.99954L11.394 16.9995M6.606 16.9995L6.26 7.99954M16.228 4.78954C16.57 4.84154 16.91 4.89654 17.25 4.95554M16.228 4.78954L15.16 18.6725C15.1164 19.2378 14.8611 19.7657 14.445 20.1508C14.029 20.5359 13.4829 20.7497 12.916 20.7495H5.084C4.5171 20.7497 3.97102 20.5359 3.55498 20.1508C3.13894 19.7657 2.88359 19.2378 2.84 18.6725L1.772 4.78954M16.228 4.78954C15.0739 4.61506 13.9138 4.48264 12.75 4.39254M1.772 4.78954C1.43 4.84054 1.09 4.89554 0.75 4.95454M1.772 4.78954C2.92613 4.61506 4.08623 4.48264 5.25 4.39254M12.75 4.39254V3.47654C12.75 2.29654 11.84 1.31254 10.66 1.27554C9.55362 1.24018 8.44638 1.24018 7.34 1.27554C6.16 1.31254 5.25 2.29754 5.25 3.47654V4.39254M12.75 4.39254C10.2537 4.19962 7.74628 4.19962 5.25 4.39254" stroke="#2F2F2F" stroke-linecap="round" stroke-linejoin="round"/>
</symbol>

<symbol id="user" width="24" height="24" viewBox="0 0 24 24" fill="none">
<g clip-path="url(#clip0_59_3874)">
<path d="M15.0004 7.07692C15.0004 7.89297 14.6843 8.6756 14.1216 9.25263C13.5589 9.82967 12.7958 10.1538 12 10.1538C11.2042 10.1538 10.4411 9.82967 9.8784 9.25263C9.31571 8.6756 8.9996 7.89297 8.9996 7.07692C8.9996 6.26087 9.31571 5.47824 9.8784 4.90121C10.4411 4.32417 11.2042 4 12 4C12.7958 4 13.5589 4.32417 14.1216 4.90121C14.6843 5.47824 15.0004 6.26087 15.0004 7.07692ZM6 18.6609C6.02571 17.0464 6.66916 15.507 7.79158 14.3746C8.914 13.2422 10.4255 12.6076 12 12.6076C13.5745 12.6076 15.086 13.2422 16.2084 14.3746C17.3308 15.507 17.9743 17.0464 18 18.6609C16.1177 19.5461 14.0708 20.0029 12 20C9.85891 20 7.82664 19.5208 6 18.6609Z" stroke="#2F2F2F" stroke-linecap="round" stroke-linejoin="round"/>
<circle cx="12" cy="12" r="11.5" stroke="#2F2F2F"/>
</g>
<defs>
<clipPath>
<rect width="24" height="24" fill="white"/>
</clipPath>
</defs>
</symbol>

<symbol id="vision" width="22" height="16" viewBox="0 0 22 16" fill="none">
<path d="M1.03613 8.322C0.967122 8.11459 0.967122 7.89041 1.03613 7.683C2.42313 3.51 6.36013 0.5 11.0001 0.5C15.6381 0.5 19.5731 3.507 20.9631 7.678C21.0331 7.885 21.0331 8.109 20.9631 8.317C19.5771 12.49 15.6401 15.5 11.0001 15.5C6.36213 15.5 2.42613 12.493 1.03613 8.322Z" stroke="#2F2F2F" stroke-linecap="round" stroke-linejoin="round"/>
<path d="M14 8C14 8.79565 13.6839 9.55871 13.1213 10.1213C12.5587 10.6839 11.7956 11 11 11C10.2044 11 9.44129 10.6839 8.87868 10.1213C8.31607 9.55871 8 8.79565 8 8C8 7.20435 8.31607 6.44129 8.87868 5.87868C9.44129 5.31607 10.2044 5 11 5C11.7956 5 12.5587 5.31607 13.1213 5.87868C13.6839 6.44129 14 7.20435 14 8Z" stroke="#2F2F2F" stroke-linecap="round" stroke-linejoin="round"/>
</symbol>

<symbol id="vision-crossed" width="22" height="20" viewBox="0 0 22 20" fill="none">
<path d="M2.97959 6.223C2.04405 7.32718 1.34741 8.6132 0.933594 10C2.22559 14.338 6.24359 17.5 10.9996 17.5C11.9926 17.5 12.9526 17.362 13.8626 17.105M5.22759 4.228C6.94021 3.09781 8.94767 2.49682 10.9996 2.5C15.7556 2.5 19.7726 5.662 21.0646 9.998C20.3565 12.3673 18.8366 14.4115 16.7716 15.772M5.22759 4.228L1.99959 1M5.22759 4.228L8.87759 7.878M16.7716 15.772L19.9996 19M16.7716 15.772L13.1216 12.122C13.4002 11.8434 13.6212 11.5127 13.772 11.1486C13.9227 10.7846 14.0003 10.3945 14.0003 10.0005C14.0003 9.6065 13.9227 9.21636 13.772 8.85235C13.6212 8.48834 13.4002 8.1576 13.1216 7.879C12.843 7.6004 12.5122 7.3794 12.1482 7.22863C11.7842 7.07785 11.3941 7.00025 11.0001 7.00025C10.6061 7.00025 10.216 7.07785 9.85195 7.22863C9.48794 7.3794 9.15719 7.6004 8.87859 7.879M13.1206 12.121L8.87959 7.88" stroke="#2F2F2F" stroke-linecap="round" stroke-linejoin="round"/>
</symbol>

<symbol id="water-glass" width="23" height="30" viewBox="0 0 23 30" fill="none">
<path d="M0.260864 0.130371L2.3996 29.7887V29.8695H20.8121L22.9508 0.222693V0.130371H0.260864ZM20.0556 29.0386H3.16181L1.55776 6.8237H2.43942L3.88989 26.4017C3.89839 26.5048 3.94449 26.6009 4.01918 26.6714C4.09387 26.7418 4.19178 26.7814 4.29375 26.7825H4.32788C4.38096 26.7788 4.43281 26.7646 4.48044 26.7405C4.52807 26.7165 4.57055 26.6831 4.60543 26.6424C4.64032 26.6016 4.66692 26.5543 4.68372 26.5031C4.70051 26.4519 4.70716 26.3978 4.7033 26.344L3.25282 6.8237H21.6596L20.0556 29.0386ZM21.7165 5.9928H3.19025L2.87172 1.66522C2.86171 1.55964 2.81281 1.46178 2.73478 1.39119C2.65675 1.32059 2.55533 1.28245 2.4508 1.28439C2.34366 1.29467 2.24465 1.34673 2.17461 1.42961C2.10458 1.5125 2.069 1.61972 2.07538 1.72869L2.39391 5.99857H1.50088L1.13684 0.955496H22.0805L21.7165 5.9928Z" fill="#407BFF"/>
<path d="M6.77941 10.932C7.04491 10.932 7.30445 10.8521 7.52521 10.7025C7.74596 10.5529 7.91802 10.3402 8.01963 10.0914C8.12123 9.84253 8.14781 9.56873 8.09602 9.30458C8.04422 9.04043 7.91637 8.79779 7.72863 8.60734C7.54089 8.4169 7.3017 8.28721 7.0413 8.23466C6.7809 8.18212 6.51099 8.20909 6.2657 8.31215C6.02041 8.41522 5.81075 8.58976 5.66325 8.8137C5.51574 9.03763 5.43701 9.30091 5.43701 9.57024C5.43701 9.9314 5.57844 10.2778 5.83019 10.5331C6.08194 10.7885 6.42338 10.932 6.77941 10.932ZM6.77941 9.03362C6.88404 9.03362 6.98631 9.06509 7.07331 9.12406C7.1603 9.18302 7.2281 9.26683 7.26814 9.36489C7.30818 9.46294 7.31865 9.57084 7.29824 9.67493C7.27783 9.77902 7.22745 9.87464 7.15347 9.94969C7.07949 10.0247 6.98523 10.0758 6.88261 10.0966C6.78 10.1173 6.67363 10.1066 6.57697 10.066C6.48031 10.0254 6.39769 9.95662 6.33957 9.86837C6.28144 9.78012 6.25041 9.67638 6.25041 9.57024C6.25041 9.42792 6.30615 9.29143 6.40535 9.19079C6.50456 9.09016 6.63911 9.03362 6.77941 9.03362Z" fill="#407BFF"/>
<path d="M6.77379 15.3576C6.77716 15.6264 6.85889 15.8882 7.00868 16.1099C7.15847 16.3317 7.36962 16.5035 7.61552 16.6038C7.86142 16.704 8.13106 16.7282 8.39048 16.6733C8.64989 16.6183 8.88747 16.4867 9.07328 16.295C9.25908 16.1033 9.3848 15.8601 9.43458 15.5961C9.48437 15.332 9.45599 15.0589 9.35304 14.8112C9.25008 14.5635 9.07715 14.3523 8.85603 14.2041C8.63492 14.0559 8.37551 13.9774 8.1105 13.9785C7.93325 13.9793 7.7579 14.0156 7.59457 14.0855C7.43124 14.1553 7.28316 14.2573 7.15889 14.3855C7.03461 14.5137 6.9366 14.6656 6.8705 14.8325C6.8044 14.9993 6.77154 15.1778 6.77379 15.3576ZM8.6395 15.3576C8.6395 15.4637 8.60847 15.5675 8.55035 15.6557C8.49222 15.744 8.4096 15.8127 8.31294 15.8534C8.21628 15.894 8.10991 15.9046 8.0073 15.8839C7.90468 15.8632 7.81043 15.8121 7.73644 15.737C7.66246 15.662 7.61208 15.5664 7.59167 15.4623C7.57126 15.3582 7.58173 15.2503 7.62177 15.1522C7.66181 15.0542 7.72961 14.9704 7.81661 14.9114C7.9036 14.8524 8.00588 14.821 8.1105 14.821C8.2508 14.821 8.38535 14.8775 8.48456 14.9781C8.58376 15.0788 8.6395 15.2153 8.6395 15.3576Z" fill="#407BFF"/>
<path d="M16.3127 15.3924C16.5782 15.3924 16.8378 15.3126 17.0585 15.1629C17.2793 15.0133 17.4513 14.8006 17.553 14.5518C17.6546 14.303 17.6811 14.0292 17.6293 13.765C17.5775 13.5009 17.4497 13.2582 17.262 13.0678C17.0742 12.8773 16.835 12.7477 16.5746 12.6951C16.3142 12.6426 16.0443 12.6695 15.799 12.7726C15.5537 12.8757 15.3441 13.0502 15.1966 13.2741C15.0491 13.4981 14.9703 13.7614 14.9703 14.0307C14.9703 14.3918 15.1118 14.7382 15.3635 14.9936C15.6153 15.249 15.9567 15.3924 16.3127 15.3924ZM16.3127 13.4998C16.4176 13.4998 16.5201 13.5315 16.6072 13.5907C16.6943 13.6499 16.7621 13.7341 16.802 13.8325C16.8419 13.9309 16.852 14.039 16.8311 14.1433C16.8102 14.2475 16.7593 14.3431 16.6847 14.418C16.6102 14.4928 16.5154 14.5434 16.4124 14.5635C16.3094 14.5835 16.2029 14.5721 16.1063 14.5306C16.0098 14.4891 15.9276 14.4194 15.8701 14.3304C15.8127 14.2414 15.7826 14.1371 15.7837 14.0307C15.7852 13.8894 15.8416 13.7544 15.9407 13.655C16.0397 13.5556 16.1734 13.4998 16.3127 13.4998Z" fill="#407BFF"/>
<path d="M11.6371 12.8246C11.9026 12.8246 12.1621 12.7447 12.3829 12.5951C12.6036 12.4454 12.7757 12.2328 12.8773 11.9839C12.9789 11.7351 13.0055 11.4613 12.9537 11.1972C12.9019 10.933 12.774 10.6904 12.5863 10.4999C12.3986 10.3095 12.1594 10.1798 11.899 10.1272C11.6386 10.0747 11.3687 10.1017 11.1234 10.2047C10.8781 10.3078 10.6684 10.4823 10.5209 10.7063C10.3734 10.9302 10.2947 11.1935 10.2947 11.4628C10.2947 11.824 10.4361 12.1703 10.6879 12.4257C10.9396 12.6811 11.2811 12.8246 11.6371 12.8246ZM11.6371 10.9262C11.7417 10.9262 11.844 10.9577 11.931 11.0166C12.018 11.0756 12.0858 11.1594 12.1258 11.2575C12.1658 11.3555 12.1763 11.4634 12.1559 11.5675C12.1355 11.6716 12.0851 11.7672 12.0111 11.8423C11.9372 11.9173 11.8429 11.9684 11.7403 11.9891C11.6377 12.0098 11.5313 11.9992 11.4346 11.9586C11.338 11.918 11.2554 11.8492 11.1972 11.761C11.1391 11.6727 11.1081 11.569 11.1081 11.4628C11.1042 11.39 11.115 11.3171 11.1399 11.2486C11.1647 11.1801 11.2031 11.1175 11.2526 11.0646C11.3021 11.0117 11.3617 10.9695 11.4278 10.9408C11.494 10.912 11.5651 10.8972 11.6371 10.8973V10.9262Z" fill="#407BFF"/>
<path d="M9.07751 20.5451C9.08311 20.7664 9.15288 20.981 9.27811 21.1622C9.40334 21.3434 9.57846 21.4831 9.78157 21.5639C9.98468 21.6446 10.2067 21.6628 10.42 21.6162C10.6333 21.5696 10.8282 21.4602 10.9805 21.3018C11.1328 21.1433 11.2357 20.9428 11.2762 20.7254C11.3167 20.508 11.2932 20.2832 11.2085 20.0793C11.1237 19.8754 10.9816 19.7013 10.7999 19.5789C10.6181 19.4565 10.4049 19.3912 10.1867 19.3911C9.88994 19.3986 9.60783 19.5235 9.4006 19.7392C9.19337 19.9548 9.07742 20.244 9.07751 20.5451ZM10.1867 20.2451C10.2452 20.2451 10.3024 20.2627 10.351 20.2957C10.3997 20.3286 10.4376 20.3755 10.46 20.4303C10.4824 20.4851 10.4882 20.5455 10.4768 20.6037C10.4654 20.6619 10.4372 20.7153 10.3959 20.7573C10.3545 20.7993 10.3018 20.8278 10.2444 20.8394C10.187 20.851 10.1276 20.845 10.0735 20.8223C10.0195 20.7996 9.97327 20.7612 9.94077 20.7118C9.90826 20.6625 9.89092 20.6045 9.89092 20.5451C9.89092 20.4656 9.92208 20.3892 9.97755 20.333C10.033 20.2767 10.1083 20.2451 10.1867 20.2451Z" fill="#407BFF"/>
<path d="M14.4414 19.2927C14.6691 19.3007 14.894 19.2392 15.0868 19.1161C15.2797 18.9929 15.4317 18.8139 15.523 18.6022C15.6144 18.3904 15.641 18.1557 15.5994 17.9284C15.5577 17.7012 15.4497 17.4919 15.2894 17.3276C15.1292 17.1633 14.9239 17.0516 14.7003 17.007C14.4767 16.9624 14.2451 16.987 14.0354 17.0775C13.8258 17.168 13.6477 17.3203 13.5244 17.5146C13.401 17.709 13.338 17.9364 13.3436 18.1675C13.3507 18.4617 13.4683 18.742 13.6723 18.9512C13.8764 19.1603 14.1515 19.2825 14.4414 19.2927ZM14.4414 17.8675C14.5199 17.8675 14.5951 17.8991 14.6506 17.9554C14.706 18.0116 14.7372 18.088 14.7372 18.1675C14.7372 18.2471 14.706 18.3234 14.6506 18.3797C14.5951 18.436 14.5199 18.4676 14.4414 18.4676C14.3624 18.4676 14.2866 18.4362 14.2302 18.3801C14.1738 18.3239 14.1414 18.2476 14.1399 18.1675C14.1399 18.1276 14.1478 18.0881 14.163 18.0514C14.1782 18.0146 14.2005 17.9812 14.2286 17.9533C14.2566 17.9254 14.2899 17.9034 14.3265 17.8886C14.363 17.8739 14.4021 17.8667 14.4414 17.8675Z" fill="#407BFF"/>
<path d="M16.7848 9.97992C17.0098 9.97992 17.2298 9.91224 17.4169 9.78543C17.604 9.65862 17.7498 9.47839 17.8359 9.26752C17.922 9.05665 17.9445 8.82462 17.9006 8.60076C17.8567 8.3769 17.7484 8.17127 17.5893 8.00988C17.4302 7.84849 17.2275 7.73858 17.0068 7.69405C16.7861 7.64952 16.5574 7.67238 16.3495 7.75972C16.1416 7.84707 15.9639 7.99498 15.8389 8.18476C15.7139 8.37453 15.6472 8.59765 15.6472 8.8259C15.6472 9.13196 15.7671 9.42549 15.9804 9.64191C16.1938 9.85833 16.4831 9.97992 16.7848 9.97992ZM16.7848 8.5547C16.8289 8.54195 16.8752 8.53973 16.9202 8.54823C16.9652 8.55672 17.0077 8.5757 17.0442 8.60367C17.0808 8.63164 17.1104 8.66783 17.1308 8.7094C17.1512 8.75096 17.1619 8.79677 17.1619 8.84321C17.1619 8.88965 17.1512 8.93545 17.1308 8.97702C17.1104 9.01859 17.0808 9.05478 17.0442 9.08274C17.0077 9.11071 16.9652 9.12969 16.9202 9.13819C16.8752 9.14668 16.8289 9.14447 16.7848 9.13171C16.7408 9.14447 16.6945 9.14668 16.6495 9.13819C16.6045 9.12969 16.562 9.11071 16.5255 9.08274C16.4889 9.05478 16.4593 9.01859 16.4389 8.97702C16.4184 8.93545 16.4078 8.88965 16.4078 8.84321C16.4078 8.79677 16.4184 8.75096 16.4389 8.7094C16.4593 8.66783 16.4889 8.63164 16.5255 8.60367C16.562 8.5757 16.6045 8.55672 16.6495 8.54823C16.6945 8.53973 16.7408 8.54195 16.7848 8.5547Z" fill="#407BFF"/>
<path d="M5.66464 27.5903C5.61362 27.6142 5.56798 27.6484 5.53056 27.6909C5.49314 27.7334 5.46475 27.7833 5.44714 27.8374C5.42954 27.8915 5.4231 27.9487 5.42822 28.0055C5.43335 28.0623 5.44993 28.1173 5.47693 28.1673C5.51189 28.2347 5.56421 28.2912 5.62831 28.3308C5.69242 28.3705 5.76591 28.3917 5.84097 28.3923C5.90399 28.3941 5.96647 28.3803 6.02299 28.352C7.76094 27.4488 9.68445 26.9743 11.6372 26.9671C13.7037 26.9976 15.7414 27.4633 17.6211 28.3346C17.6955 28.374 17.78 28.3893 17.8632 28.3784C17.9464 28.3675 18.0243 28.3309 18.0863 28.2736C18.1484 28.2164 18.1916 28.1411 18.2101 28.0581C18.2286 27.9751 18.2216 27.8884 18.1899 27.8096C18.1499 27.7072 18.0724 27.6246 17.9738 27.5788C15.9837 26.6553 13.8254 26.164 11.6372 26.1362C9.56136 26.1381 7.51519 26.6362 5.66464 27.5903Z" fill="#407BFF"/>
</symbol>

<symbol id="arrow-down" width="18" height="10" viewBox="0 0 18 10" fill="none">
<path fill-rule="evenodd" clip-rule="evenodd" d="M9.52985 9.28015C9.38922 9.4206 9.1986 9.49949 8.99985 9.49949C8.8011 9.49949 8.61047 9.4206 8.46985 9.28015L0.969847 1.78015C0.837366 1.63798 0.765243 1.44993 0.768672 1.25563C0.7721 1.06133 0.850812 0.875945 0.988225 0.738532C1.12564 0.601118 1.31102 0.522407 1.50532 0.518978C1.69963 0.51555 1.88767 0.587673 2.02985 0.720153L8.99985 7.69015L15.9698 0.720153C16.0385 0.646466 16.1213 0.587364 16.2133 0.546372C16.3053 0.50538 16.4046 0.483339 16.5053 0.481562C16.606 0.479785 16.7061 0.49831 16.7994 0.536031C16.8928 0.573752 16.9777 0.629896 17.0489 0.701115C17.1201 0.772334 17.1762 0.857168 17.214 0.950556C17.2517 1.04394 17.2702 1.14397 17.2684 1.24468C17.2667 1.34538 17.2446 1.44469 17.2036 1.53669C17.1626 1.62869 17.1035 1.71149 17.0298 1.78015L9.52985 9.28015Z" fill="#2F2F2F"/>
</symbol>

<symbol id="arrow-to-left" width="20" height="10" viewBox="0 0 20 10" fill="none">
<path fill-rule="evenodd" clip-rule="evenodd" d="M5.28032 0.720316C5.42077 0.860942 5.49966 1.05157 5.49966 1.25032C5.49966 1.44907 5.42077 1.63969 5.28032 1.78032L2.81032 4.25032H19.0003C19.1992 4.25032 19.39 4.32933 19.5306 4.46999C19.6713 4.61064 19.7503 4.8014 19.7503 5.00032C19.7503 5.19923 19.6713 5.38999 19.5306 5.53065C19.39 5.6713 19.1992 5.75032 19.0003 5.75032H2.81032L5.28032 8.22032C5.354 8.28898 5.41311 8.37178 5.4541 8.46378C5.49509 8.55578 5.51713 8.65509 5.51891 8.75579C5.52068 8.8565 5.50216 8.95653 5.46444 9.04991C5.42672 9.1433 5.37057 9.22814 5.29936 9.29935C5.22814 9.37057 5.1433 9.42672 5.04991 9.46444C4.95653 9.50216 4.8565 9.52068 4.75579 9.51891C4.65509 9.51713 4.55578 9.49509 4.46378 9.4541C4.37178 9.41311 4.28898 9.354 4.22032 9.28032L0.470317 5.53032C0.329866 5.38969 0.250977 5.19907 0.250977 5.00032C0.250977 4.80157 0.329866 4.61094 0.470317 4.47032L4.22032 0.720316C4.36094 0.579866 4.55157 0.500977 4.75032 0.500977C4.94907 0.500977 5.13969 0.579866 5.28032 0.720316Z" fill="#2F2F2F"/>
</symbol>

<symbol id="calendar" width="32" height="32" viewBox="0 0 32 32" fill="none">
<path d="M7.25 1V4.75M24.75 1V4.75M1 27.25V8.5C1 7.50544 1.39509 6.55161 2.09835 5.84835C2.80161 5.14509 3.75544 4.75 4.75 4.75H27.25C28.2446 4.75 29.1984 5.14509 29.9016 5.84835C30.6049 6.55161 31 7.50544 31 8.5V27.25M1 27.25C1 28.2446 1.39509 29.1984 2.09835 29.9016C2.80161 30.6049 3.75544 31 4.75 31H27.25C28.2446 31 29.1984 30.6049 29.9016 29.9016C30.6049 29.1984 31 28.2446 31 27.25M1 27.25V14.75C1 13.7554 1.39509 12.8016 2.09835 12.0983C2.80161 11.3951 3.75544 11 4.75 11H27.25C28.2446 11 29.1984 11.3951 29.9016 12.0983C30.6049 12.8016 31 13.7554 31 14.75V27.25M16 17.25H16.0133V17.2633H16V17.25ZM16 21H16.0133V21.0133H16V21ZM16 24.75H16.0133V24.7633H16V24.75ZM12.25 21H12.2633V21.0133H12.25V21ZM12.25 24.75H12.2633V24.7633H12.25V24.75ZM8.5 21H8.51333V21.0133H8.5V21ZM8.5 24.75H8.51333V24.7633H8.5V24.75ZM19.75 17.25H19.7633V17.2633H19.75V17.25ZM19.75 21H19.7633V21.0133H19.75V21ZM19.75 24.75H19.7633V24.7633H19.75V24.75ZM23.5 17.25H23.5133V17.2633H23.5V17.25ZM23.5 21H23.5133V21.0133H23.5V21Z" stroke="#407BFF" stroke-width="2" stroke-linecap="round" stroke-linejoin="round"/>
</symbol>

<symbol id="edit" width="21" height="21" viewBox="0 0 21 21" fill="none">
<path d="M14.862 3.48725L16.549 1.79925C16.9007 1.44757 17.3777 1.25 17.875 1.25C18.3723 1.25 18.8493 1.44757 19.201 1.79925C19.5527 2.15092 19.7502 2.6279 19.7502 3.12525C19.7502 3.62259 19.5527 4.09957 19.201 4.45125L8.582 15.0702C8.05332 15.5986 7.40137 15.987 6.685 16.2002L4 17.0002L4.8 14.3152C5.01328 13.5989 5.40163 12.9469 5.93 12.4182L14.862 3.48725ZM14.862 3.48725L17.5 6.12525M16 13.0002V17.7502C16 18.347 15.7629 18.9193 15.341 19.3412C14.919 19.7632 14.3467 20.0002 13.75 20.0002H3.25C2.65326 20.0002 2.08097 19.7632 1.65901 19.3412C1.23705 18.9193 1 18.347 1 17.7502V7.25025C1 6.65351 1.23705 6.08121 1.65901 5.65926C2.08097 5.2373 2.65326 5.00025 3.25 5.00025H8" stroke="#2F2F2F" stroke-linecap="round" stroke-linejoin="round"/>
</symbol>

<symbol id="exit" width="19" height="20" viewBox="0 0 19 20" fill="none">
<path d="M11.75 7V3.25C11.75 2.65326 11.5129 2.08097 11.091 1.65901C10.669 1.23705 10.0967 1 9.5 1H3.5C2.90326 1 2.33097 1.23705 1.90901 1.65901C1.48705 2.08097 1.25 2.65326 1.25 3.25V16.75C1.25 17.3467 1.48705 17.919 1.90901 18.341C2.33097 18.7629 2.90326 19 3.5 19H9.5C10.0967 19 10.669 18.7629 11.091 18.341C11.5129 17.919 11.75 17.3467 11.75 16.75V13M14.75 13L17.75 10M17.75 10L14.75 7M17.75 10H5" stroke="#2F2F2F" stroke-linecap="round" stroke-linejoin="round"/>
</symbol>

</svg>
